<svg xmlns="http://www.w3.org/2000/svg" viewBox="0 0 1024 1024" fill="none">
  <title>CCX App Icon Candidate 03 - Premium CX</title>
  <defs>
    <linearGradient id="premium-flow" x1="214" y1="276" x2="820" y2="742" gradientUnits="userSpaceOnUse">
      <stop offset="0" stop-color="#3b82f6"/>
      <stop offset="0.48" stop-color="#22d3ee"/>
      <stop offset="1" stop-color="#10b981"/>
    </linearGradient>
    <linearGradient id="premium-highlight" x1="280" y1="214" x2="728" y2="534" gradientUnits="userSpaceOnUse">
      <stop offset="0" stop-color="#ffffff" stop-opacity="0.7"/>
      <stop offset="0.42" stop-color="#bfdbfe" stop-opacity="0.28"/>
      <stop offset="1" stop-color="#ffffff" stop-opacity="0"/>
    </linearGradient>
    <radialGradient id="premium-bg" cx="0" cy="0" r="1" gradientUnits="userSpaceOnUse" gradientTransform="translate(704 688) rotate(-134) scale(770 710)">
      <stop offset="0" stop-color="#064e3b"/>
      <stop offset="0.34" stop-color="#082f49"/>
      <stop offset="1" stop-color="#020617"/>
    </radialGradient>
    <filter id="premium-shadow" x="-16%" y="-16%" width="132%" height="132%" color-interpolation-filters="sRGB">
      <feDropShadow dx="0" dy="30" stdDeviation="36" flood-color="#000814" flood-opacity="0.54"/>
    </filter>
    <filter id="premium-glow" x="-24%" y="-24%" width="148%" height="148%" color-interpolation-filters="sRGB">
      <feGaussianBlur stdDeviation="14" result="blur"/>
      <feMerge>
        <feMergeNode in="blur"/>
        <feMergeNode in="SourceGraphic"/>
      </feMerge>
    </filter>
  </defs>

  <rect x="48" y="48" width="928" height="928" rx="220" fill="url(#premium-bg)" filter="url(#premium-shadow)"/>
  <rect x="72" y="70" width="880" height="880" rx="202" fill="none" stroke="#60a5fa" stroke-width="3" opacity="0.3"/>
  <path d="M138 132C276 92 720 92 856 150C728 126 280 128 138 132Z" fill="#dbeafe" opacity="0.14"/>
  <circle cx="512" cy="512" r="354" stroke="#38bdf8" stroke-width="8" opacity="0.12"/>

  <g filter="url(#premium-glow)" stroke-linecap="round" stroke-linejoin="round">
    <path d="M435 286H368C268 286 196 382 196 512C196 642 268 738 368 738H435" stroke="#031026" stroke-width="128" opacity="0.5"/>
    <path d="M435 286H368C268 286 196 382 196 512C196 642 268 738 368 738H435" stroke="url(#premium-flow)" stroke-width="116"/>

    <path d="M574 296L806 728" stroke="#031026" stroke-width="128" opacity="0.5"/>
    <path d="M806 296L574 728" stroke="#031026" stroke-width="128" opacity="0.5"/>
    <path d="M574 296L806 728" stroke="url(#premium-flow)" stroke-width="116"/>
    <path d="M806 296L574 728" stroke="url(#premium-flow)" stroke-width="116"/>
  </g>

  <path d="M262 370C304 318 354 310 430 310" stroke="url(#premium-highlight)" stroke-width="22" stroke-linecap="round" opacity="0.7"/>
  <path d="M596 326L710 536" stroke="url(#premium-highlight)" stroke-width="20" stroke-linecap="round" opacity="0.55"/>
  <path d="M258 708C322 764 434 760 512 710" stroke="#10b981" stroke-width="10" stroke-linecap="round" opacity="0.28"/>
  <circle cx="512" cy="512" r="54" fill="#f8fafc" opacity="0.96"/>
  <circle cx="512" cy="512" r="24" fill="#0f172a" opacity="0.85"/>
</svg>
