<svg xmlns="http://www.w3.org/2000/svg" viewBox="0 0 100 100" fill="none">
  <title>CCX Favicon</title>
  <defs>
    <!-- 与 App Icon 同源的终端网关流光渐变 -->
    <linearGradient id="fav-gateway-flow" x1="18%" y1="28%" x2="82%" y2="72%">
      <stop offset="0%" stop-color="#38bdf8" />
      <stop offset="48%" stop-color="#6366f1" />
      <stop offset="100%" stop-color="#10b981" />
    </linearGradient>

    <!-- 深色玻璃面板渐变 -->
    <linearGradient id="fav-gateway-panel" x1="15%" y1="20%" x2="85%" y2="82%">
      <stop offset="0%" stop-color="#102a56" stop-opacity="0.95" />
      <stop offset="52%" stop-color="#06142a" stop-opacity="0.92" />
      <stop offset="100%" stop-color="#042f2e" stop-opacity="0.95" />
    </linearGradient>

    <radialGradient id="fav-gateway-bg" cx="70%" cy="70%" r="86%">
      <stop offset="0%" stop-color="#064e3b" />
      <stop offset="40%" stop-color="#082f49" />
      <stop offset="100%" stop-color="#020617" />
    </radialGradient>

    <filter id="fav-gateway-glow" x="-28%" y="-28%" width="156%" height="156%">
      <feGaussianBlur stdDeviation="2.2" result="blur" />
      <feMerge>
        <feMergeNode in="blur" />
        <feMergeNode in="SourceGraphic" />
      </feMerge>
    </filter>
  </defs>

  <rect x="5" y="5" width="90" height="90" rx="22" fill="url(#fav-gateway-bg)" />
  <rect x="7.5" y="7.5" width="85" height="85" rx="20" fill="none" stroke="#93c5fd" stroke-width="0.9" opacity="0.32" />

  <rect x="15" y="20" width="70" height="62" rx="14" fill="url(#fav-gateway-panel)" stroke="#93c5fd" stroke-width="1.4" opacity="0.98" />
  <path d="M 19 32 H 81" stroke="#bae6fd" stroke-width="0.8" opacity="0.18" />
  <circle cx="25" cy="26.5" r="2.3" fill="#10b981" />
  <circle cx="32" cy="26.5" r="2.3" fill="#38bdf8" opacity="0.78" />
  <circle cx="39" cy="26.5" r="2.3" fill="#6366f1" opacity="0.78" />

  <g filter="url(#fav-gateway-glow)" stroke-linecap="round" stroke-linejoin="round">
    <path d="M 28 39 L 42 51 L 28 63" stroke="url(#fav-gateway-flow)" stroke-width="8" />
    <path d="M 52 38 L 73 64" stroke="url(#fav-gateway-flow)" stroke-width="8" />
    <path d="M 73 38 L 52 64" stroke="url(#fav-gateway-flow)" stroke-width="8" />
  </g>

  <path d="M 22 74 H 50" stroke="#10b981" stroke-width="2.6" stroke-linecap="round" opacity="0.46" />
  <path d="M 55 74 H 68" stroke="#38bdf8" stroke-width="2.6" stroke-linecap="round" opacity="0.34" />
  <circle cx="76" cy="74" r="2.4" fill="#5eead4" />
  <circle cx="76" cy="74" r="5.5" stroke="#5eead4" stroke-width="1.1" opacity="0.24" />
</svg>
